<svg version="1.1" id="Layer_1" xmlns="http://www.w3.org/2000/svg" xmlns:xlink="http://www.w3.org/1999/xlink" x="0px" y="0px"
	 width="100%" viewBox="0 0 556 477" enable-background="new 0 0 556 477" xml:space="preserve">
<path fill="#FFFFFF" opacity="1.000000" stroke="none" 
	d="
M557.000000,175.000000 
	C557.000000,276.308929 557.000000,377.117889 557.000000,477.963409 
	C371.735901,477.963409 186.471802,477.963409 1.103851,477.963409 
	C1.103851,319.107758 1.103851,160.215439 1.103851,1.161552 
	C186.333221,1.161552 371.666595,1.161552 557.000000,1.161552 
	C557.000000,58.861504 557.000000,116.680756 557.000000,175.000000 
M443.426239,406.056793 
	C467.158142,416.378021 490.890045,426.699280 514.778931,437.088776 
	C514.778931,305.558777 514.778931,174.473160 514.778931,43.574646 
	C514.429932,43.284256 514.305603,43.090054 514.181091,43.089962 
	C462.024078,43.050201 409.866943,42.993984 357.710419,43.137581 
	C356.116028,43.141968 353.921234,44.874428 353.030304,46.399433 
	C344.553314,60.909344 336.276093,75.536308 327.983734,90.153618 
	C313.635834,115.445274 299.329559,140.760529 284.973236,166.047394 
	C283.190369,169.187698 281.209229,172.215439 278.973694,175.859863 
	C265.347809,152.088043 252.147018,129.147491 239.035583,106.155983 
	C227.833801,86.513168 216.721497,66.819244 205.603500,47.128792 
	C203.836517,43.999378 201.547592,42.867561 197.727478,42.880905 
	C147.903000,43.054951 98.077736,42.996441 48.252663,42.996437 
	C46.633011,42.996437 45.013363,42.996433 43.364525,42.996433 
	C43.364525,174.567001 43.364525,305.701599 43.364525,437.275787 
	C55.746761,431.757507 67.621391,426.361206 79.580650,421.159454 
	C98.788719,412.804840 118.064713,404.606598 137.288971,396.289032 
	C150.457718,390.591492 163.434402,384.403595 176.821396,379.283173 
	C181.231735,377.596252 182.092453,375.649445 182.071152,371.559784 
	C181.937469,345.898071 182.003555,320.235321 182.003555,294.572906 
	C182.003555,293.223816 182.003540,291.874725 182.003540,289.468506 
	C191.416595,307.517273 200.198639,324.419403 209.040466,341.290222 
	C216.549484,355.617920 224.051453,369.950928 231.793228,384.152557 
	C232.562119,385.562988 234.975296,386.875336 236.632812,386.884552 
	C266.127014,387.048462 295.622559,386.958618 325.117218,387.074402 
	C327.997620,387.085724 329.565399,386.220276 330.845093,383.662811 
	C341.273163,362.822662 351.819824,342.041870 362.326385,321.240967 
	C366.665436,312.650513 370.994629,304.055115 375.996490,294.136993 
	C375.996490,297.192261 375.996490,298.778748 375.996490,300.365234 
	C375.996490,324.527893 375.959106,348.690735 376.076416,372.852814 
	C376.084717,374.555115 376.769348,377.244781 377.930023,377.788849 
	C385.067352,381.134491 392.477295,383.891113 399.711731,387.038605 
	C414.052307,393.277740 428.337830,399.643494 443.426239,406.056793 
z"/>
<path fill="#122E53" opacity="1.000000" stroke="none" 
	d="
M443.036163,406.006866 
	C428.337830,399.643494 414.052307,393.277740 399.711731,387.038605 
	C392.477295,383.891113 385.067352,381.134491 377.930023,377.788849 
	C376.769348,377.244781 376.084717,374.555115 376.076416,372.852814 
	C375.959106,348.690735 375.996490,324.527893 375.996490,300.365234 
	C375.996490,298.778748 375.996490,297.192261 375.996490,294.136993 
	C370.994629,304.055115 366.665436,312.650513 362.326385,321.240967 
	C351.819824,342.041870 341.273163,362.822662 330.845093,383.662811 
	C329.565399,386.220276 327.997620,387.085724 325.117218,387.074402 
	C295.622559,386.958618 266.127014,387.048462 236.632812,386.884552 
	C234.975296,386.875336 232.562119,385.562988 231.793228,384.152557 
	C224.051453,369.950928 216.549484,355.617920 209.040466,341.290222 
	C200.198639,324.419403 191.416595,307.517273 182.003540,289.468506 
	C182.003540,291.874725 182.003555,293.223816 182.003555,294.572906 
	C182.003555,320.235321 181.937469,345.898071 182.071152,371.559784 
	C182.092453,375.649445 181.231735,377.596252 176.821396,379.283173 
	C163.434402,384.403595 150.457718,390.591492 137.288971,396.289032 
	C118.064713,404.606598 98.788719,412.804840 79.580650,421.159454 
	C67.621391,426.361206 55.746761,431.757507 43.364525,437.275787 
	C43.364525,305.701599 43.364525,174.567001 43.364525,42.996433 
	C45.013363,42.996433 46.633011,42.996437 48.252663,42.996437 
	C98.077736,42.996441 147.903000,43.054951 197.727478,42.880905 
	C201.547592,42.867561 203.836517,43.999378 205.603500,47.128792 
	C216.721497,66.819244 227.833801,86.513168 239.035583,106.155983 
	C252.147018,129.147491 265.347809,152.088043 278.973694,175.859863 
	C281.209229,172.215439 283.190369,169.187698 284.973236,166.047394 
	C299.329559,140.760529 313.635834,115.445274 327.983734,90.153618 
	C336.276093,75.536308 344.553314,60.909344 353.030304,46.399433 
	C353.921234,44.874428 356.116028,43.141968 357.710419,43.137581 
	C409.866943,42.993984 462.024078,43.050201 514.181091,43.089962 
	C514.305603,43.090054 514.429932,43.284256 514.778931,43.574646 
	C514.778931,174.473160 514.778931,305.558777 514.778931,437.088776 
	C490.890045,426.699280 467.158142,416.378021 443.036163,406.006866 
M170.923157,323.500000 
	C170.923157,297.528900 170.923157,271.557831 170.923157,244.151657 
	C172.138321,246.099106 172.518585,246.626266 172.815857,247.196671 
	C194.519287,288.841949 216.257950,330.469055 237.825516,372.184631 
	C239.370956,375.173828 240.997849,376.104797 244.270966,376.084869 
	C268.598450,375.936798 292.927917,375.919891 317.255005,376.098419 
	C320.786011,376.124329 322.435577,374.933929 323.970154,371.874023 
	C344.055420,331.825043 364.279480,291.845673 384.488007,251.858597 
	C385.099457,250.648743 385.921143,249.545151 387.357574,247.256256 
	C387.357574,250.470810 387.357574,252.286896 387.357574,254.102982 
	C387.357574,290.762238 387.445862,327.421967 387.237915,364.080048 
	C387.213867,368.322021 388.717529,370.137360 392.358551,371.691010 
	C414.164581,380.995697 435.876221,390.521454 457.629730,399.949524 
	C472.958649,406.593140 488.303802,413.199402 503.930939,419.947174 
	C503.930939,297.797821 503.930939,176.093002 503.930939,54.188736 
	C503.077026,54.112568 502.441498,54.006371 501.805969,54.006248 
	C456.148560,53.997269 410.491028,54.033703 364.833954,53.909359 
	C361.900330,53.901371 360.861725,55.309902 359.661804,57.424187 
	C337.612732,96.274391 315.518585,135.099014 293.427307,173.925247 
	C288.797760,182.061890 284.141724,190.183456 279.180725,198.867157 
	C277.858673,196.672104 276.907318,195.160110 276.020874,193.610947 
	C250.136475,148.374130 224.228607,103.150642 198.451767,57.852600 
	C196.853867,55.044579 195.279068,53.899048 191.938614,53.908783 
	C147.447998,54.038448 102.956879,53.992756 58.465881,54.007610 
	C57.045483,54.008083 55.625141,54.188457 54.335320,54.276093 
	C54.335320,176.313507 54.335320,297.861298 54.335320,419.575714 
	C55.087486,419.409088 55.589199,419.378113 56.023136,419.190430 
	C93.464447,402.996521 130.915771,386.825287 168.275192,370.444458 
	C169.622665,369.853668 170.783249,367.200378 170.808884,365.489990 
	C171.013565,351.829132 170.923157,338.163910 170.923157,323.500000 
z"/>
<path fill="#FBFCFB" opacity="1.000000" stroke="none" 
	d="
M170.923157,324.000000 
	C170.923157,338.163910 171.013565,351.829132 170.808884,365.489990 
	C170.783249,367.200378 169.622665,369.853668 168.275192,370.444458 
	C130.915771,386.825287 93.464447,402.996521 56.023136,419.190430 
	C55.589199,419.378113 55.087486,419.409088 54.335320,419.575714 
	C54.335320,297.861298 54.335320,176.313507 54.335320,54.276093 
	C55.625141,54.188457 57.045483,54.008083 58.465881,54.007610 
	C102.956879,53.992756 147.447998,54.038448 191.938614,53.908783 
	C195.279068,53.899048 196.853867,55.044579 198.451767,57.852600 
	C224.228607,103.150642 250.136475,148.374130 276.020874,193.610947 
	C276.907318,195.160110 277.858673,196.672104 279.180725,198.867157 
	C284.141724,190.183456 288.797760,182.061890 293.427307,173.925247 
	C315.518585,135.099014 337.612732,96.274391 359.661804,57.424187 
	C360.861725,55.309902 361.900330,53.901371 364.833954,53.909359 
	C410.491028,54.033703 456.148560,53.997269 501.805969,54.006248 
	C502.441498,54.006371 503.077026,54.112568 503.930939,54.188736 
	C503.930939,176.093002 503.930939,297.797821 503.930939,419.947174 
	C488.303802,413.199402 472.958649,406.593140 457.629730,399.949524 
	C435.876221,390.521454 414.164581,380.995697 392.358551,371.691010 
	C388.717529,370.137360 387.213867,368.322021 387.237915,364.080048 
	C387.445862,327.421967 387.357574,290.762238 387.357574,254.102982 
	C387.357574,252.286896 387.357574,250.470810 387.357574,247.256256 
	C385.921143,249.545151 385.099457,250.648743 384.488007,251.858597 
	C364.279480,291.845673 344.055420,331.825043 323.970154,371.874023 
	C322.435577,374.933929 320.786011,376.124329 317.255005,376.098419 
	C292.927917,375.919891 268.598450,375.936798 244.270966,376.084869 
	C240.997849,376.104797 239.370956,375.173828 237.825516,372.184631 
	C216.257950,330.469055 194.519287,288.841949 172.815857,247.196671 
	C172.518585,246.626266 172.138321,246.099106 170.923157,244.151657 
	C170.923157,271.557831 170.923157,297.528900 170.923157,324.000000 
M278.372253,220.637787 
	C249.506378,170.108353 220.611053,119.595657 191.847534,69.008034 
	C190.116852,65.964226 188.157578,65.093475 184.810333,65.103348 
	C146.647202,65.216003 108.483604,65.172157 70.320137,65.184708 
	C68.718033,65.185234 67.115982,65.328789 65.414246,65.410492 
	C65.414246,177.917404 65.414246,289.974304 65.414246,402.490753 
	C67.122055,401.906006 68.528519,401.529572 69.849792,400.956665 
	C97.989479,388.754028 126.074753,376.423889 154.301437,364.426331 
	C158.382874,362.691559 159.471481,360.618988 159.458023,356.363617 
	C159.297409,305.535065 159.354355,254.705795 159.354355,203.876724 
	C159.354355,202.303253 159.354355,200.729782 159.354355,197.670120 
	C160.708511,199.891632 161.319397,200.774628 161.811890,201.719345 
	C171.631104,220.554474 181.429337,239.400528 191.246552,258.236694 
	C209.120316,292.530853 227.033676,326.804474 244.825470,361.141113 
	C246.231628,363.854858 247.794998,364.984406 250.929825,364.901123 
	C260.255157,364.653351 269.589722,364.753754 279.844269,364.940430 
	C289.343842,364.957306 298.858459,364.661682 308.336884,365.117737 
	C313.369995,365.359894 315.907593,363.737732 318.188446,359.184143 
	C342.239563,311.167206 366.545837,263.278107 390.789917,215.357895 
	C392.955658,211.077164 395.179565,206.825851 397.376434,202.560867 
	C397.677307,202.684708 397.978149,202.808533 398.279022,202.932373 
	C398.279022,204.755798 398.279022,206.579224 398.279022,208.402649 
	C398.279022,257.735382 398.359070,307.068481 398.148376,356.400330 
	C398.128510,361.052094 399.670319,363.053925 403.751740,364.768768 
	C422.744080,372.748444 441.602570,381.046814 460.507019,389.235565 
	C471.137970,393.840515 481.765198,398.454041 492.855804,403.263947 
	C492.855804,290.258026 492.855804,177.884201 492.855804,65.008987 
	C491.009430,65.008987 489.380951,65.008995 487.752472,65.008995 
	C449.419586,65.008987 411.086517,65.067032 372.754211,64.916100 
	C369.058807,64.901543 367.139526,66.143875 365.381500,69.264160 
	C349.380310,97.663979 333.252472,125.992607 317.109406,154.312271 
	C304.426300,176.562073 291.669312,198.769760 278.372253,220.637787 
z"/>
<path fill="#D7AA27" opacity="1.000000" stroke="none" 
	d="
M278.945160,220.996155 
	C291.669312,198.769760 304.426300,176.562073 317.109406,154.312271 
	C333.252472,125.992607 349.380310,97.663979 365.381500,69.264160 
	C367.139526,66.143875 369.058807,64.901543 372.754211,64.916100 
	C411.086517,65.067032 449.419586,65.008987 487.752472,65.008995 
	C489.380951,65.008995 491.009430,65.008987 492.855804,65.008987 
	C492.855804,177.884201 492.855804,290.258026 492.855804,403.263947 
	C481.765198,398.454041 471.137970,393.840515 460.507019,389.235565 
	C441.602570,381.046814 422.744080,372.748444 403.751740,364.768768 
	C399.670319,363.053925 398.128510,361.052094 398.148376,356.400330 
	C398.359070,307.068481 398.279022,257.735382 398.279022,208.402649 
	C398.279022,206.579224 398.279022,204.755798 398.279022,202.932373 
	C397.978149,202.808533 397.677307,202.684708 397.376434,202.560867 
	C395.179565,206.825851 392.955658,211.077164 390.789917,215.357895 
	C366.545837,263.278107 342.239563,311.167206 318.188446,359.184143 
	C315.907593,363.737732 313.369995,365.359894 308.336884,365.117737 
	C298.858459,364.661682 289.343842,364.957306 279.397919,364.379913 
	C278.949432,316.211639 278.947296,268.603912 278.945160,220.996155 
z"/>
<path fill="#112D53" opacity="1.000000" stroke="none" 
	d="
M278.658691,220.816971 
	C278.947296,268.603912 278.949432,316.211639 278.936127,364.268738 
	C269.589722,364.753754 260.255157,364.653351 250.929825,364.901123 
	C247.794998,364.984406 246.231628,363.854858 244.825470,361.141113 
	C227.033676,326.804474 209.120316,292.530853 191.246552,258.236694 
	C181.429337,239.400528 171.631104,220.554474 161.811890,201.719345 
	C161.319397,200.774628 160.708511,199.891632 159.354355,197.670120 
	C159.354355,200.729782 159.354355,202.303253 159.354355,203.876724 
	C159.354355,254.705795 159.297409,305.535065 159.458023,356.363617 
	C159.471481,360.618988 158.382874,362.691559 154.301437,364.426331 
	C126.074753,376.423889 97.989479,388.754028 69.849792,400.956665 
	C68.528519,401.529572 67.122055,401.906006 65.414246,402.490753 
	C65.414246,289.974304 65.414246,177.917404 65.414246,65.410492 
	C67.115982,65.328789 68.718033,65.185234 70.320137,65.184708 
	C108.483604,65.172157 146.647202,65.216003 184.810333,65.103348 
	C188.157578,65.093475 190.116852,65.964226 191.847534,69.008034 
	C220.611053,119.595657 249.506378,170.108353 278.658691,220.816971 
z"/>
</svg>